<svg width="74" height="51" viewBox="0 0 74 51" fill="none" xmlns="http://www.w3.org/2000/svg">
<path fill-rule="evenodd" clip-rule="evenodd" d="M32.2261 17.7116C30.2054 13.4208 27.3439 4.51032 34.5566 3.47026C39.1461 2.80914 45.1369 5.591 46.7682 10.1384C48.8125 15.8378 43.002 19.3694 38.3548 20.6143C37.0172 20.9732 35.6446 21.2235 34.253 21.3969C33.5087 20.208 32.8244 18.9819 32.2261 17.7116ZM0.124465 17.6059C9.75171 22.3095 21.2606 25.1402 32.1792 24.4222C33.596 26.4431 35.091 28.2504 36.4338 29.7037C44.2356 38.1462 55.7691 44.9697 67.0309 47.4449C68.2617 47.715 69.0391 46.4026 68.7547 45.4068C68.9771 45.941 69.193 46.478 69.4023 47.018C67.9725 47.5071 66.5116 47.7563 64.9412 47.7696C63.9816 47.7773 62.9615 47.51 62.0194 47.5911C61.4582 47.6393 61.3668 48.0304 60.7482 47.9997C60.5509 47.9898 60.3867 48.231 60.5717 48.3787C61.0785 48.7829 61.1308 49.328 61.6546 49.711C62.4795 50.3146 64.2435 50.5471 65.2117 50.6454C67.6229 50.8901 70.0172 50.4738 72.2785 49.6425C73.2229 49.2951 73.5663 48.2886 73.3082 47.3778C72.6759 45.1447 71.7266 43.0011 70.6525 40.9479C69.7214 39.1694 68.7787 37.0886 67.1591 35.8537C65.8898 34.8847 64.1765 36.0943 64.6645 37.6164C65.2596 39.4739 66.6493 41.0559 67.5511 42.7899C67.9379 43.5333 68.2785 44.2915 68.604 45.0559C68.4624 44.8311 68.2499 44.6411 67.952 44.5181C58.3295 40.5465 49.0776 37.0306 41.2882 29.8126C39.3744 28.0405 37.6047 26.0962 36.0391 24.002C36.2756 23.967 36.5158 23.942 36.7529 23.9037C44.5449 22.6283 54.2176 16.1901 48.9284 7.22373C45.1752 0.859056 32.1224 -3.8141 27.7347 4.38183C24.9312 9.61831 27.091 16.1498 30.4071 21.69C27.0256 21.7991 23.6069 21.568 20.3473 21.3114C13.5523 20.7775 6.80013 19.2658 0.309252 17.2135C0.0518136 17.1323 -0.134582 17.4795 0.124465 17.6059Z" fill="#0A0A0A"/>
</svg>
