<svg width="25" height="25" viewBox="0 0 25 25" fill="none" xmlns="http://www.w3.org/2000/svg">
<path d="M16.584 9.24902C18.2416 9.24902 19.8313 9.9075 21.0034 11.0796C22.1755 12.2517 22.834 13.8414 22.834 15.499V22.7907H18.6673V15.499C18.6673 14.9465 18.4478 14.4166 18.0571 14.0259C17.6664 13.6352 17.1365 13.4157 16.584 13.4157C16.0314 13.4157 15.5015 13.6352 15.1108 14.0259C14.7201 14.4166 14.5007 14.9465 14.5007 15.499V22.7907H10.334V15.499C10.334 13.8414 10.9925 12.2517 12.1646 11.0796C13.3367 9.9075 14.9264 9.24902 16.584 9.24902Z" stroke="white" stroke-width="2.08478" stroke-linecap="round" stroke-linejoin="round"/>
<path d="M6.16667 10.29H2V22.79H6.16667V10.29Z" stroke="white" stroke-width="2.08478" stroke-linecap="round" stroke-linejoin="round"/>
<path d="M4.08333 7.16667C5.23393 7.16667 6.16667 6.23393 6.16667 5.08333C6.16667 3.93274 5.23393 3 4.08333 3C2.93274 3 2 3.93274 2 5.08333C2 6.23393 2.93274 7.16667 4.08333 7.16667Z" stroke="white" stroke-width="2.08478" stroke-linecap="round" stroke-linejoin="round"/>
</svg>
