<svg width="26" height="26" viewBox="0 0 26 26" fill="none" xmlns="http://www.w3.org/2000/svg">
<path d="M15.7465 23.4942C15.7877 23.5968 15.8592 23.6843 15.9516 23.7451C16.0439 23.8058 16.1526 23.8369 16.2631 23.834C16.3736 23.8312 16.4806 23.7946 16.5697 23.7292C16.6588 23.6639 16.7258 23.5728 16.7616 23.4682L23.8033 2.88491C23.838 2.78892 23.8446 2.68504 23.8224 2.58543C23.8001 2.48582 23.75 2.39459 23.6779 2.32242C23.6057 2.25025 23.5145 2.20013 23.4148 2.17792C23.3152 2.15571 23.2114 2.16232 23.1154 2.19699L2.53203 9.23866C2.42749 9.27451 2.33641 9.34149 2.27103 9.4306C2.20564 9.5197 2.16908 9.62668 2.16625 9.73717C2.16342 9.84765 2.19446 9.95636 2.2552 10.0487C2.31593 10.141 2.40346 10.2126 2.50603 10.2537L11.0969 13.6987C11.3684 13.8075 11.6152 13.9701 11.8222 14.1767C12.0293 14.3834 12.1923 14.6299 12.3015 14.9012L15.7465 23.4942Z" stroke="white" stroke-width="2.08478" stroke-linecap="round" stroke-linejoin="round"/>
<path d="M23.6759 2.32617L11.8242 14.1768" stroke="white" stroke-width="2.08478" stroke-linecap="round" stroke-linejoin="round"/>
</svg>
