<svg width="167" height="60" viewBox="0 0 167 60" fill="none" xmlns="http://www.w3.org/2000/svg">
<path d="M164.163 41.8795C164.639 42.5574 165.575 42.721 166.253 42.2449C166.93 41.7688 167.094 40.8332 166.618 40.1553L165.39 41.0174L164.163 41.8795ZM101.921 3.25341L101.254 1.90986L101.217 1.92814L101.181 1.94841L101.921 3.25341ZM91.3431 19.6504L92.8293 19.8532L91.3431 19.6504ZM100.511 43.0065L100.647 44.5003L100.511 43.0065ZM45.8894 8.91113L45.2612 7.54904L45.8894 8.91113ZM12.7125 59.2353C13.4438 59.6245 14.3521 59.3472 14.7414 58.6159L21.0845 46.699C21.4738 45.9677 21.1965 45.0593 20.4652 44.6701C19.734 44.2808 18.8256 44.5581 18.4363 45.2894L12.798 55.8822L2.20509 50.2439C1.47381 49.8546 0.565437 50.1319 0.176188 50.8632C-0.21306 51.5945 0.0642138 52.5028 0.795499 52.8921L12.7125 59.2353ZM165.39 41.0174L166.618 40.1553C152.968 20.7194 139.499 9.7932 128.018 4.39286C116.581 -0.986487 106.977 -0.930988 101.254 1.90986L101.921 3.25341L102.588 4.59697C107.209 2.30321 115.799 1.96108 126.741 7.10756C137.638 12.233 150.733 22.7562 164.163 41.8795L165.39 41.0174ZM101.921 3.25341L101.181 1.94841C98.7615 3.31986 96.2565 5.13683 94.1878 7.92885C92.1151 10.7262 90.5434 14.4168 89.8568 19.4475L91.3431 19.6504L92.8293 19.8532C93.457 15.2531 94.8651 12.0539 96.5982 9.71485C98.3353 7.37044 100.462 5.80433 102.661 4.55841L101.921 3.25341ZM91.3431 19.6504L89.8568 19.4475C88.9407 26.161 89.9388 32.398 91.9053 36.9491C92.8868 39.2207 94.1381 41.1373 95.5775 42.4757C97.0124 43.8097 98.7579 44.6722 100.647 44.5003L100.511 43.0065L100.375 41.5126C99.6188 41.5814 98.6757 41.2598 97.6203 40.2786C96.5695 39.3016 95.5288 37.7717 94.6592 35.7591C92.9233 31.7419 91.9822 26.0601 92.8293 19.8532L91.3431 19.6504ZM100.511 43.0065L100.647 44.5003C101.714 44.4031 102.66 44.0086 103.425 43.3302C104.177 42.6629 104.681 41.7864 104.995 40.8252C105.613 38.9353 105.563 36.5256 105.042 33.9589C103.993 28.7871 100.909 22.3654 96.0056 16.6948C91.0895 11.0096 84.2755 6.00055 75.7103 3.78396C67.1243 1.56201 56.9036 2.17918 45.2612 7.54904L45.8894 8.91113L46.5176 10.2732C57.6021 5.16073 67.1144 4.65827 74.9586 6.68829C82.8236 8.72367 89.137 13.3382 93.7364 18.6571C98.3484 23.9905 101.168 29.9533 102.102 34.5554C102.573 36.8756 102.534 38.7002 102.144 39.8931C101.954 40.4733 101.7 40.8502 101.434 41.0861C101.181 41.3109 100.849 41.4694 100.375 41.5126L100.511 43.0065ZM45.8894 8.91113L45.2612 7.54904C24.1311 17.2949 15.6829 29.859 12.6243 40.1758C11.1041 45.3036 10.9345 49.8131 11.1477 53.0501C11.2543 54.6691 11.4568 55.9731 11.6355 56.8816C11.7248 57.3361 11.8083 57.6922 11.8711 57.9399C11.9025 58.0638 11.9287 58.1607 11.9479 58.2293C11.9575 58.2636 11.9654 58.2908 11.9712 58.3108C11.9741 58.3208 11.9766 58.329 11.9785 58.3354C11.9794 58.3386 11.9803 58.3413 11.981 58.3436C11.9813 58.3448 11.9817 58.3461 11.9819 58.3467C11.9823 58.3479 11.9826 58.3491 13.4173 57.9112C14.8519 57.4732 14.8522 57.4741 14.8524 57.4749C14.8525 57.475 14.8527 57.4757 14.8527 57.476C14.8529 57.4764 14.8529 57.4764 14.8528 57.476C14.8525 57.4751 14.8517 57.4725 14.8504 57.4681C14.8479 57.4593 14.8433 57.4435 14.8369 57.4208C14.8242 57.3753 14.8044 57.3024 14.7792 57.2032C14.729 57.0047 14.6575 56.7013 14.5791 56.3028C14.4223 55.5054 14.2384 54.3296 14.1412 52.853C13.9467 49.8987 14.0997 45.7537 15.5006 41.0285C18.2841 31.6394 26.0719 19.7034 46.5176 10.2732L45.8894 8.91113Z" fill="#0A0A0A"/>
</svg>
